<?xml version="1.0" encoding="UTF-8"?>
<svg id="Capa_2" data-name="Capa 2" xmlns="http://www.w3.org/2000/svg" viewBox="0 0 1080 1080">
  <defs>
    <style>
      .cls-1 {
        fill: #349bd6;
      }

      .cls-1, .cls-2 {
        stroke-width: 0px;
      }

      .cls-2 {
        fill: #2062b0;
      }
    </style>
  </defs>
  <path class="cls-2" d="m168.75,122.7l66.6,750.26,303.53,84.34,300.23-83.23,72.14-746.93-742.5-4.43Zm177.59,619.29l-11.11-140.96h96.55l4.43,71.04,102.66,25.52,103.77-28.84,6.67-115.42h-320.74l-5.57-89.9,215.87-93.28,5-2.17-5,.02-224.73,1.08-10-95.44h466.14l-7.76,95.44-218.65,93.23h209.76l-23.3,284.12-191.46,54.38-192.54-58.82Z"/>
  <polygon class="cls-1" points="649.32 553.01 642.65 668.43 538.88 697.28 538.88 553.01 649.32 553.01"/>
  <polygon class="cls-1" points="839.11 182.63 784.72 828.55 538.88 894.04 538.88 800.82 730.34 746.43 753.64 462.31 543.88 462.31 762.53 369.09 770.29 273.64 538.88 273.64 538.88 189.28 839.11 182.63"/>
</svg>