<?xml version="1.0" encoding="UTF-8"?>
<svg id="Capa_2" data-name="Capa 2" xmlns="http://www.w3.org/2000/svg" viewBox="0 0 1080 1080">
  <defs>
    <style>
      .cls-1 {
        fill: #001e36;
      }

      .cls-1, .cls-2 {
        stroke-width: 0px;
      }

      .cls-2 {
        fill: #31a8ff;
      }
    </style>
  </defs>
  <g id="Surfaces">
    <g id="Photo_Surface" data-name="Photo Surface">
      <g id="Outline_no_shadow" data-name="Outline no shadow">
        <path class="cls-1" d="m0,1.52h1080.2v1082.19H0V1.52Z"/>
      </g>
    </g>
  </g>
  <g id="Outlined_Mnemonics_Logos" data-name="Outlined Mnemonics Logos">
    <g id="Ps">
      <path class="cls-2" d="m215.02,767.74v-463.59c0-2.49,2.02-4.5,4.51-4.5,7.65,0,14.85,0,25.2-.45,10.8-.45,22.05-.45,34.21-.9,12.15-.45,25.2-.45,39.16-.9,13.95-.45,27.46-.45,40.96-.45,36.91,0,67.51,4.5,92.72,13.95,22.5,7.65,43.21,20.25,60.31,36.91,14.4,14.4,25.65,31.96,32.86,51.31,6.75,18.9,10.35,38.26,10.35,58.51,0,38.71-9,70.66-27.01,95.87-18,25.2-43.21,44.11-72.46,54.91-30.61,11.25-64.36,15.3-101.27,15.3-10.8,0-18,0-22.5-.45s-10.8-.45-19.35-.45v144.48c.45,3.15-1.8,5.85-4.95,6.3h-87.32c-3.6,0-5.4-1.8-5.4-5.85Zm98.12-381.22v151.23c6.3.45,12.15.9,17.55.9h23.85c17.55,0,35.11-2.7,51.76-8.1,14.4-4.05,27.01-12.6,36.91-23.85,9.45-11.25,13.95-26.56,13.95-46.36.45-13.95-3.15-27.91-10.35-40.06-7.65-11.7-18.45-20.7-31.51-25.65-16.65-6.75-34.66-9.45-53.11-9-11.7,0-22.05,0-30.61.45-9-.45-15.3,0-18.45.45h0Z"/>
      <path class="cls-2" d="m836.14,510.29c-13.5-7.2-27.91-12.15-43.21-15.3-16.65-3.6-33.31-5.85-50.41-5.85-9-.45-18.45.9-27.01,3.15-5.85,1.35-10.8,4.5-13.95,9-2.25,3.6-3.6,8.1-3.6,12.15s1.8,8.1,4.5,11.7c4.05,4.95,9.45,9,15.3,12.15,10.35,5.4,21.15,10.35,31.96,14.85,24.3,8.1,47.71,19.35,69.31,32.86,14.85,9.45,27.01,22.05,35.56,37.36,7.2,14.4,10.8,30.16,10.35,46.36.45,21.15-5.85,42.31-17.55,59.86-12.6,18-30.16,31.96-50.41,40.06-22.05,9.45-49.06,14.4-81.47,14.4-20.7,0-40.96-1.8-61.21-5.85-15.75-2.7-31.51-7.65-45.91-14.4-3.15-1.8-5.4-4.95-4.95-8.55v-78.31c0-1.35.45-3.15,1.8-4.05,1.35-.9,2.7-.45,4.05.45,17.55,10.35,36.01,17.55,55.81,22.05,17.1,4.5,35.11,6.75,53.11,6.75s29.26-2.25,37.36-6.3c7.2-3.15,12.15-10.8,12.15-18.9,0-6.3-3.6-12.15-10.8-18-7.2-5.85-22.05-12.6-44.11-21.15-22.95-8.1-44.11-18.9-63.91-32.41-13.95-9.9-25.65-22.95-34.21-38.26-7.2-14.4-10.8-30.16-10.35-45.91,0-19.35,5.4-37.81,15.3-54.46,11.25-18,27.91-32.41,47.26-41.41,21.15-10.8,47.71-15.75,79.67-15.75,18.45,0,37.36,1.35,55.81,4.05,13.5,1.8,26.55,5.4,38.71,10.35,1.8.45,3.6,2.25,4.5,4.05.45,1.8.9,3.6.9,5.4v73.36c0,1.8-.9,3.6-2.25,4.5-4.05.9-6.3.9-8.1,0Z"/>
    </g>
  </g>
</svg>