<?xml version="1.0" encoding="UTF-8"?>
<svg id="Capa_2" data-name="Capa 2" xmlns="http://www.w3.org/2000/svg" viewBox="0 0 1080 1080">
  <defs>
    <style>
      .cls-1, .cls-2 {
        stroke-width: 0px;
      }

      .cls-2 {
        fill: #f7df1e;
      }
    </style>
  </defs>
  <rect class="cls-2" width="1080" height="1080"/>
  <text/>
  <path class="cls-1" d="m283.47,905.12l81.65-50.12c16.95,31.51,37.18,54.35,63.53,52.47,36.95-2.64,56.31-17.49,56.31-78.61v-332.92h103.59v341.53c1.28,93.29-45.74,160.88-146.99,160.88-70.06,0-128.67-25-158.08-93.23Z"/>
  <path class="cls-1" d="m643.65,893.94l82.59-48c34.06,54.88,78.8,66.29,111.88,61.24,35.82-5.47,59.22-23.31,58.76-49.12-.35-19.88-16.09-43.31-56.12-59.76l-63.88-30.35c-47.48-19.31-103.27-67.19-103.06-133.76.35-111.88,82.94-152.12,171.53-143.29,52.51,5.23,94.94,26.47,123.18,80.12l-78.71,52.24c-7.65-14.58-32.12-51.18-71.29-44.47-30.61,5.24-44.47,19.68-44.47,45.88,0,28.11,23.54,43.73,63.53,59.65l58.94,28.24c55.95,22.62,110.53,79.05,110.53,143.8,0,76.09-63.56,147.1-172.62,142.02-97.08-4.53-154.26-35.58-190.79-104.41Z"/>
</svg>