<?xml version="1.0" encoding="UTF-8"?>
<svg id="Capa_2" data-name="Capa 2" xmlns="http://www.w3.org/2000/svg" viewBox="0 0 1080 1080">
  <defs>
    <style>
      .cls-1 {
        fill: #f16529;
      }

      .cls-1, .cls-2, .cls-3 {
        stroke-width: 0px;
      }

      .cls-2 {
        fill: #e44d26;
      }

      .cls-3 {
        fill: #349bd6;
      }
    </style>
  </defs>
  <g>
    <path class="cls-2" d="m167.9,118.52l70.85,760.07,302.49,82.89,302.49-84.13,68.37-758.82H167.9Zm181.64,635.59l-13.69-151.87h94.6l3.74,72.2,105.81,28.63,1.24-.36,100.83-29.51,8.72-114.53h-319.92l-22.41-282.57h465.57l-12.45,92.12-220.34-.79-129.46-.46,6.23,92.12h336.1l-19.92,288.8-192.95,53.52-191.7-47.3Z"/>
    <polygon class="cls-1" points="650.79 558.67 642.07 673.2 541.24 702.71 541.24 558.67 650.79 558.67"/>
    <polygon class="cls-1" points="843.74 180.25 783.98 827.55 541.24 896.02 541.24 801.41 734.19 747.89 754.11 459.09 541.24 459.09 541.24 367.43 761.58 368.22 774.03 276.1 541.24 276.1 541.24 180.25 843.74 180.25"/>
  </g>
  <polygon class="cls-3" points="540.99 366.85 535.99 369.02 535.99 366.88 540.99 366.85"/>
</svg>